<svg width="38" height="45" viewBox="0 0 38 45" fill="none" xmlns="http://www.w3.org/2000/svg">
<path d="M27.0607 0.93934C26.4749 0.353553 25.5251 0.353553 24.9393 0.93934L15.3934 10.4853C14.8076 11.0711 14.8076 12.0208 15.3934 12.6066C15.9792 13.1924 16.9289 13.1924 17.5147 12.6066L26 4.12132L34.4853 12.6066C35.0711 13.1924 36.0208 13.1924 36.6066 12.6066C37.1924 12.0208 37.1924 11.0711 36.6066 10.4853L27.0607 0.93934ZM1.51261 44.4097C9.90121 41.3593 16.4928 37.463 20.9337 30.8349C25.3582 24.2312 27.5 15.1356 27.5 2L24.5 2C24.5 14.8644 22.3918 23.2688 18.4413 29.1651C14.5072 35.037 8.59879 38.6407 0.487385 41.5903L1.51261 44.4097Z" fill="black"/>
</svg>
