<svg width="1271" height="1094" viewBox="0 0 1271 1094" fill="none" xmlns="http://www.w3.org/2000/svg">
<g clip-path="url(#clip0_26_294)">
<g opacity="0.5">
<path opacity="0.0526316" d="M464.437 1565.38C525.015 1581.75 671.662 1573.85 773.622 1411.28C901.072 1208.07 836.321 983.255 925.797 770.761C991.839 613.926 1229.89 270.207 1495.64 237.793" stroke="#00D8FF"/>
<path opacity="0.105263" d="M370.446 1505.33C428.98 1527.94 575.65 1535.41 694.049 1384.39C842.047 1195.61 801.156 965.259 912.358 763.28C994.433 614.205 1267.12 297.247 1534.8 292.782" stroke="#00D8FF"/>
<path opacity="0.157895" d="M282.755 1438.58C338.605 1467.18 483.69 1489.94 617.23 1352.11C784.154 1179.83 767.572 946.473 899.282 757.221C996.493 617.54 1300.82 330.814 1567.51 354.348" stroke="#00D8FF"/>
<path opacity="0.210526" d="M202.029 1365.81C254.582 1400.09 396.494 1437.88 543.711 1314.77C727.733 1160.88 735.641 927.062 886.416 752.612C997.701 623.855 1330.34 370.504 1593.1 421.779" stroke="#00D8FF"/>
<path opacity="0.263158" d="M128.861 1287.78C177.542 1327.37 314.725 1379.78 474.007 1272.74C673.111 1138.92 705.421 907.208 873.611 749.469C997.745 633.047 1355.06 415.847 1611.02 494.3" stroke="#00D8FF"/>
<path opacity="0.315789" d="M63.7568 1205.32C108.032 1249.78 238.984 1316.25 408.586 1226.43C620.59 1114.15 676.949 887.087 860.708 747.789C996.333 644.977 1374.39 466.308 1620.75 571.08" stroke="#00D8FF"/>
<path opacity="0.368421" d="M7.13623 1119.3C46.5207 1168.14 169.806 1247.92 347.87 1176.32C570.451 1086.82 650.242 866.884 847.559 747.554C993.189 659.479 1387.87 521.297 1621.92 651.24" stroke="#00D8FF"/>
<path opacity="0.421053" d="M-40.6729 1030.61C-6.6106 1083.3 107.657 1175.53 292.232 1122.93C522.951 1057.18 625.3 846.787 834.012 748.73C988.055 676.358 1395.02 580.177 1614.2 733.868" stroke="#00D8FF"/>
<path opacity="0.473684" d="M-79.4407 940.196C-51.0735 996.154 52.9252 1099.83 241.989 1066.8C478.319 1025.52 602.103 826.978 819.924 751.27C980.692 695.392 1395.47 642.267 1597.39 818.022" stroke="#00D8FF"/>
<path opacity="0.526316" d="M-109.038 849.01C-86.6787 907.629 5.91248 1021.59 197.393 1008.51C436.745 992.149 580.609 807.636 805.152 755.105C970.882 716.334 1388.94 706.847 1571.38 902.74" stroke="#00D8FF"/>
<path opacity="0.578947" d="M-129.434 758.015C-113.325 818.65 -33.1569 941.669 158.643 948.664C398.394 957.409 560.761 788.939 789.566 760.162C958.442 738.923 1375.21 773.176 1536.16 987.062" stroke="#00D8FF"/>
<path opacity="0.631579" d="M-140.698 668.172C-131.016 730.158 -64.1496 860.881 125.869 887.882C363.392 921.635 542.484 771.054 773.044 766.346C943.215 762.872 1354.12 840.492 1491.83 1070.03" stroke="#00D8FF"/>
<path opacity="0.684211" d="M-143 580.428C-139.853 643.087 -87.0198 780.082 99.1344 826.792C331.827 885.181 525.682 754.143 755.472 773.554C925.073 787.882 1325.61 908.018 1438.57 1150.68" stroke="#00D8FF"/>
<path opacity="0.736842" d="M-136.61 495.708C-140.032 558.352 -101.811 700.118 78.4396 766.027C303.753 848.413 510.246 738.351 736.748 781.67C903.923 813.644 1289.7 974.979 1376.67 1228.12" stroke="#00D8FF"/>
<path opacity="0.789474" d="M-121.89 414.907C-131.842 476.85 -108.653 621.833 63.719 706.218C279.185 811.699 496.053 723.819 716.785 790.572C879.701 839.841 1246.5 1040.61 1306.53 1301.45" stroke="#00D8FF"/>
<path opacity="0.842105" d="M-99.2982 338.868C-115.672 399.432 -107.768 546.044 54.8368 647.98C258.094 775.401 482.963 710.666 695.506 800.12C852.378 866.145 1196.18 1104.14 1228.6 1369.83" stroke="#00D8FF"/>
<path opacity="0.894737" d="M-69.3723 268.393C-91.9883 326.914 -99.4572 473.549 51.5997 591.919C240.421 739.883 470.827 699.001 672.853 810.178C821.963 892.234 1138.99 1164.85 1143.46 1432.48" stroke="#00D8FF"/>
<path opacity="0.947368" d="M-32.7368 204.213C-61.3474 260.051 -84.1065 405.102 53.7472 538.611C226.063 705.496 459.482 688.917 648.777 820.597C788.491 917.786 1075.28 1222.05 1051.75 1488.67" stroke="#00D8FF"/>
<path d="M9.91405 147C-24.3782 199.542 -62.1771 341.42 60.9619 488.603C214.886 672.582 448.759 680.487 623.25 831.227C752.037 942.485 1005.45 1275.05 954.16 1537.75" stroke="#00D8FF"/>
</g>
<g opacity="0.5">
<path opacity="0.0526316" d="M464.437 1565.38C525.015 1581.75 671.662 1573.85 773.622 1411.28C901.072 1208.07 836.321 983.255 925.797 770.761C991.839 613.926 1229.89 270.207 1495.64 237.793" stroke="#00D8FF"/>
<path opacity="0.105263" d="M370.446 1505.33C428.98 1527.94 575.65 1535.41 694.049 1384.39C842.047 1195.61 801.156 965.259 912.358 763.28C994.433 614.205 1267.12 297.247 1534.8 292.782" stroke="#00D8FF"/>
<path opacity="0.157895" d="M282.755 1438.58C338.605 1467.18 483.69 1489.94 617.23 1352.11C784.154 1179.83 767.572 946.473 899.282 757.221C996.493 617.54 1300.82 330.814 1567.51 354.348" stroke="#00D8FF"/>
<path opacity="0.210526" d="M202.029 1365.81C254.582 1400.09 396.494 1437.88 543.711 1314.77C727.733 1160.88 735.641 927.062 886.416 752.612C997.701 623.855 1330.34 370.504 1593.1 421.779" stroke="#00D8FF"/>
<path opacity="0.263158" d="M128.861 1287.78C177.542 1327.37 314.725 1379.78 474.007 1272.74C673.111 1138.92 705.421 907.208 873.611 749.469C997.745 633.047 1355.06 415.847 1611.02 494.3" stroke="#00D8FF"/>
<path opacity="0.315789" d="M63.7568 1205.32C108.032 1249.78 238.984 1316.25 408.586 1226.43C620.59 1114.15 676.949 887.087 860.708 747.789C996.333 644.977 1374.39 466.308 1620.75 571.08" stroke="#00D8FF"/>
<path opacity="0.368421" d="M7.13623 1119.3C46.5207 1168.14 169.806 1247.92 347.87 1176.32C570.451 1086.82 650.242 866.884 847.559 747.554C993.189 659.479 1387.87 521.297 1621.92 651.24" stroke="#00D8FF"/>
<path opacity="0.421053" d="M-40.6729 1030.61C-6.6106 1083.3 107.657 1175.53 292.232 1122.93C522.951 1057.18 625.3 846.787 834.012 748.73C988.055 676.358 1395.02 580.177 1614.2 733.868" stroke="#00D8FF"/>
<path opacity="0.473684" d="M-79.4407 940.196C-51.0735 996.154 52.9252 1099.83 241.989 1066.8C478.319 1025.52 602.103 826.978 819.924 751.27C980.692 695.392 1395.47 642.267 1597.39 818.022" stroke="#00D8FF"/>
<path opacity="0.526316" d="M-109.038 849.01C-86.6787 907.629 5.91248 1021.59 197.393 1008.51C436.745 992.149 580.609 807.636 805.152 755.105C970.882 716.334 1388.94 706.847 1571.38 902.74" stroke="#00D8FF"/>
<path opacity="0.578947" d="M-129.434 758.015C-113.325 818.65 -33.1569 941.669 158.643 948.664C398.394 957.409 560.761 788.939 789.566 760.162C958.442 738.923 1375.21 773.176 1536.16 987.062" stroke="#00D8FF"/>
<path opacity="0.631579" d="M-140.698 668.172C-131.016 730.158 -64.1496 860.881 125.869 887.882C363.392 921.635 542.484 771.054 773.044 766.346C943.215 762.872 1354.12 840.492 1491.83 1070.03" stroke="#00D8FF"/>
<path opacity="0.684211" d="M-143 580.428C-139.853 643.087 -87.0198 780.082 99.1344 826.792C331.827 885.181 525.682 754.143 755.472 773.554C925.073 787.882 1325.61 908.018 1438.57 1150.68" stroke="#00D8FF"/>
<path opacity="0.736842" d="M-136.61 495.708C-140.032 558.352 -101.811 700.118 78.4396 766.027C303.753 848.413 510.246 738.351 736.748 781.67C903.923 813.644 1289.7 974.979 1376.67 1228.12" stroke="#00D8FF"/>
<path opacity="0.789474" d="M-121.89 414.907C-131.842 476.85 -108.653 621.833 63.719 706.218C279.185 811.699 496.053 723.819 716.785 790.572C879.701 839.841 1246.5 1040.61 1306.53 1301.45" stroke="#00D8FF"/>
<path opacity="0.842105" d="M-99.2982 338.868C-115.672 399.432 -107.768 546.044 54.8368 647.98C258.094 775.401 482.963 710.666 695.506 800.12C852.378 866.145 1196.18 1104.14 1228.6 1369.83" stroke="#00D8FF"/>
<path opacity="0.894737" d="M-69.3723 268.393C-91.9883 326.914 -99.4572 473.549 51.5997 591.919C240.421 739.883 470.827 699.001 672.853 810.178C821.963 892.234 1138.99 1164.85 1143.46 1432.48" stroke="#00D8FF"/>
<path opacity="0.947368" d="M-32.7368 204.213C-61.3474 260.051 -84.1065 405.102 53.7472 538.611C226.063 705.496 459.482 688.917 648.777 820.597C788.491 917.786 1075.28 1222.05 1051.75 1488.67" stroke="#00D8FF"/>
<path d="M9.91405 147C-24.3782 199.542 -62.1771 341.42 60.9619 488.603C214.886 672.582 448.759 680.487 623.25 831.227C752.037 942.485 1005.45 1275.05 954.16 1537.75" stroke="#00D8FF"/>
</g>
</g>
<defs>
<clipPath id="clip0_26_294">
<rect width="1279" height="1094" fill="white"/>
</clipPath>
</defs>
</svg>
