<svg width="1037" height="837" viewBox="0 0 1037 837" fill="none" xmlns="http://www.w3.org/2000/svg">
<g opacity="0.5">
<path opacity="0.0526316" d="M357.238 832.689C392.759 842.29 478.747 837.656 538.533 742.329C613.265 623.176 575.298 491.351 627.763 366.752C666.488 274.789 806.074 73.2441 961.899 54.2375" stroke="#00D8FF" stroke-opacity="0.3"/>
<path opacity="0.105263" d="M302.124 797.48C336.447 810.737 422.449 815.116 491.874 726.563C578.655 615.87 554.678 480.799 619.883 362.365C668.008 274.953 827.901 89.0995 984.862 86.4815" stroke="#00D8FF" stroke-opacity="0.3"/>
<path opacity="0.157895" d="M250.706 758.335C283.454 775.106 368.527 788.451 446.83 707.636C544.709 606.618 534.985 469.783 612.215 358.813C669.217 276.908 847.666 108.782 1004.04 122.582" stroke="#00D8FF" stroke-opacity="0.3"/>
<path opacity="0.210526" d="M203.37 715.665C234.186 735.768 317.398 757.929 403.721 685.741C511.625 595.506 516.262 458.401 604.671 356.11C669.925 280.611 864.972 132.055 1019.05 162.121" stroke="#00D8FF" stroke-opacity="0.3"/>
<path opacity="0.263158" d="M160.468 669.912C189.012 693.13 269.452 723.86 362.849 661.092C479.597 582.625 498.542 446.759 597.163 354.267C669.951 286.001 879.466 158.643 1029.55 204.645" stroke="#00D8FF" stroke-opacity="0.3"/>
<path opacity="0.315789" d="M122.293 621.561C148.254 647.632 225.04 686.605 324.489 633.938C448.8 568.103 481.847 434.961 589.597 353.282C669.123 292.996 890.804 188.231 1035.26 249.666" stroke="#00D8FF" stroke-opacity="0.3"/>
<path opacity="0.368421" d="M89.0922 571.123C112.186 599.76 184.476 646.544 288.887 604.556C419.4 552.076 466.187 423.115 581.887 353.144C667.279 301.5 898.705 220.474 1035.94 296.669" stroke="#00D8FF" stroke-opacity="0.3"/>
<path opacity="0.421053" d="M61.0588 519.117C81.0317 550.014 148.034 604.093 256.263 573.252C391.548 534.696 451.562 411.331 573.944 353.834C664.269 311.397 902.897 255 1031.42 345.119" stroke="#00D8FF" stroke-opacity="0.3"/>
<path opacity="0.473684" d="M38.3265 466.103C54.96 498.914 115.941 559.704 226.802 540.34C365.377 516.133 437.96 399.715 565.682 355.323C659.951 322.558 903.163 291.407 1021.56 394.464" stroke="#00D8FF" stroke-opacity="0.3"/>
<path opacity="0.526316" d="M20.9717 412.634C34.0825 447.007 88.3747 513.832 200.653 506.157C341 496.566 425.356 388.374 557.021 357.572C654.199 334.838 899.335 329.275 1006.31 444.14" stroke="#00D8FF" stroke-opacity="0.3"/>
<path opacity="0.578947" d="M9.01245 359.278C18.4578 394.832 65.4658 466.966 177.931 471.068C318.512 476.196 413.718 377.41 547.882 360.536C646.905 348.083 891.283 368.168 985.658 493.583" stroke="#00D8FF" stroke-opacity="0.3"/>
<path opacity="0.631579" d="M2.40765 306.597C8.08444 342.944 47.2928 419.595 158.713 435.428C297.988 455.219 403.001 366.924 538.194 364.163C637.976 362.126 878.914 407.639 959.665 542.23" stroke="#00D8FF" stroke-opacity="0.3"/>
<path opacity="0.684211" d="M1.05762 255.147C2.90283 291.888 33.8825 372.217 143.037 399.607C279.48 433.844 393.149 357.007 527.89 368.389C627.339 376.791 862.201 447.234 928.432 589.524" stroke="#00D8FF" stroke-opacity="0.3"/>
<path opacity="0.736842" d="M4.80438 205.47C2.79824 242.203 25.2096 325.329 130.902 363.976C263.018 412.284 384.098 347.748 516.911 373.149C614.937 391.897 841.145 486.498 892.137 634.933" stroke="#00D8FF" stroke-opacity="0.3"/>
<path opacity="0.789474" d="M13.4357 158.091C7.60007 194.413 21.1973 279.425 122.271 328.906C248.612 390.757 375.776 339.227 505.205 378.368C600.734 407.258 815.813 524.98 851.009 677.931" stroke="#00D8FF" stroke-opacity="0.3"/>
<path opacity="0.842105" d="M26.6829 113.505C17.0818 149.017 21.7165 234.985 117.062 294.757C236.245 369.473 368.101 331.514 492.728 383.967C584.713 422.681 786.304 562.235 805.314 718.024" stroke="#00D8FF" stroke-opacity="0.3"/>
<path opacity="0.894737" d="M44.2304 72.1804C30.9691 106.495 26.5896 192.477 115.164 261.885C225.882 348.646 360.984 324.674 479.445 389.865C566.878 437.98 752.775 597.834 755.394 754.758" stroke="#00D8FF" stroke-opacity="0.3"/>
<path opacity="0.947368" d="M65.712 34.5479C48.9358 67.2891 35.5907 152.342 116.423 230.627C217.464 328.483 354.332 318.762 465.328 395.974C547.252 452.962 715.417 631.371 701.616 787.707" stroke="#00D8FF" stroke-opacity="0.3"/>
<path d="M90.7211 1C70.6134 31.8085 48.4494 115.001 120.654 201.304C210.91 309.183 348.044 313.818 450.36 402.207C525.876 467.445 674.466 662.451 644.394 816.49" stroke="#00D8FF" stroke-opacity="0.3"/>
</g>
</svg>
